<?xml version="1.0" encoding="UTF-8" standalone="no"?>
<!-- Generator: Adobe Illustrator 16.0.0, SVG Export Plug-In . SVG Version: 6.00 Build 0)  -->

<svg
   xmlns:dc="http://purl.org/dc/elements/1.1/"
   xmlns:cc="http://creativecommons.org/ns#"
   xmlns:rdf="http://www.w3.org/1999/02/22-rdf-syntax-ns#"
   xmlns:svg="http://www.w3.org/2000/svg"
   xmlns="http://www.w3.org/2000/svg"
   xmlns:sodipodi="http://sodipodi.sourceforge.net/DTD/sodipodi-0.dtd"
   xmlns:inkscape="http://www.inkscape.org/namespaces/inkscape"
   version="1.1"
   id="Capa_1"
   x="0px"
   y="0px"
   width="370.20291"
   height="370.20285"
   viewBox="0 0 370.20291 370.20285"
   xml:space="preserve"
   inkscape:version="0.91 r13725"
   sodipodi:docname="finger.svg"><metadata
     id="metadata4274"><rdf:RDF><cc:Work
         rdf:about=""><dc:format>image/svg+xml</dc:format><dc:type
           rdf:resource="http://purl.org/dc/dcmitype/StillImage" /><dc:title></dc:title></cc:Work></rdf:RDF></metadata><defs
     id="defs4272" /><sodipodi:namedview
     pagecolor="#ffffff"
     bordercolor="#666666"
     borderopacity="1"
     objecttolerance="10"
     gridtolerance="10"
     guidetolerance="10"
     inkscape:pageopacity="0"
     inkscape:pageshadow="2"
     inkscape:window-width="1258"
     inkscape:window-height="675"
     id="namedview4270"
     showgrid="false"
     fit-margin-top="0"
     fit-margin-left="0"
     fit-margin-right="0"
     fit-margin-bottom="0"
     inkscape:zoom="0.54169935"
     inkscape:cx="207.32603"
     inkscape:cy="230.74798"
     inkscape:window-x="0"
     inkscape:window-y="0"
     inkscape:window-maximized="0"
     inkscape:current-layer="g4228" /><g
     id="g4226"
     transform="translate(-71.710478,-109.96007)"><g
       id="g4228"><g
         id="g4280"
         transform="matrix(0.70710678,-0.70710678,0.70710678,0.70710678,-126.06941,250.26552)"><path
           style="fill:#ffffff"
           sodipodi:nodetypes="ssccss"
           inkscape:connector-curvature="0"
           d="M 239.062,76.500003 C 191.25,76.500003 153,114.75 153,162.562 l 0,315.562 172.125,0 0,-315.562 c 0,-47.812 -38.25,-86.061997 -86.063,-86.061997 z"
           id="path4278" /><rect
           id="rect4230"
           height="19.125"
           width="95.625"
           y="325.125"
           x="191.25" /><path
           id="path4232"
           d="m 239.062,114.75 c -26.775,0 -47.812,21.038 -47.812,47.812 l 0,66.938 95.625,0 0,-66.938 c 0,-26.774 -21.037,-47.812 -47.813,-47.812 z m 28.688,95.625 -57.375,0 0,-47.812 c 0,-15.3 13.388,-28.688 28.688,-28.688 15.3,0 28.688,13.388 28.688,28.688 l 0,47.812 z"
           inkscape:connector-curvature="0" /><rect
           id="rect4234"
           height="19.125"
           width="95.625"
           y="286.875"
           x="191.25" /><path
           id="path4238"
           d="M 239.062,76.5 C 191.25,76.5 153,114.75 153,162.562 l 0,315.562 172.125,0 0,-315.562 C 325.125,114.75 286.875,76.5 239.062,76.5 Z M 306,459 l -133.875,0 0,-296.438 c 0,-36.337 30.6,-66.938 66.938,-66.938 36.338,0 66.938,30.6 66.938,66.938 l 0,296.438 z"
           inkscape:connector-curvature="0" /></g></g></g><g
     id="g4240"
     transform="translate(-71.710478,-109.96007)" /><g
     id="g4242"
     transform="translate(-71.710478,-109.96007)" /><g
     id="g4244"
     transform="translate(-71.710478,-109.96007)" /><g
     id="g4246"
     transform="translate(-71.710478,-109.96007)" /><g
     id="g4248"
     transform="translate(-71.710478,-109.96007)" /><g
     id="g4250"
     transform="translate(-71.710478,-109.96007)" /><g
     id="g4252"
     transform="translate(-71.710478,-109.96007)" /><g
     id="g4254"
     transform="translate(-71.710478,-109.96007)" /><g
     id="g4256"
     transform="translate(-71.710478,-109.96007)" /><g
     id="g4258"
     transform="translate(-71.710478,-109.96007)" /><g
     id="g4260"
     transform="translate(-71.710478,-109.96007)" /><g
     id="g4262"
     transform="translate(-71.710478,-109.96007)" /><g
     id="g4264"
     transform="translate(-71.710478,-109.96007)" /><g
     id="g4266"
     transform="translate(-71.710478,-109.96007)" /><g
     id="g4268"
     transform="translate(-71.710478,-109.96007)" /></svg>