<?xml version="1.0" encoding="UTF-8" standalone="no"?>
<!-- Creator: CorelDRAW X6 -->

<svg
   xmlns:dc="http://purl.org/dc/elements/1.1/"
   xmlns:cc="http://creativecommons.org/ns#"
   xmlns:rdf="http://www.w3.org/1999/02/22-rdf-syntax-ns#"
   xmlns:svg="http://www.w3.org/2000/svg"
   xmlns="http://www.w3.org/2000/svg"
   xmlns:sodipodi="http://sodipodi.sourceforge.net/DTD/sodipodi-0.dtd"
   xmlns:inkscape="http://www.inkscape.org/namespaces/inkscape"
   xml:space="preserve"
   width="68.315903mm"
   height="21.537357mm"
   version="1.1"
   style="clip-rule:evenodd;fill-rule:evenodd;image-rendering:optimizeQuality;shape-rendering:geometricPrecision;text-rendering:geometricPrecision"
   viewBox="0 0 4868.2663 1534.6671"
   id="svg2"
   inkscape:version="0.91 r13725"
   sodipodi:docname="персик.svg"><metadata
     id="metadata52"><rdf:RDF><cc:Work
         rdf:about=""><dc:format>image/svg+xml</dc:format><dc:type
           rdf:resource="http://purl.org/dc/dcmitype/StillImage" /><dc:title></dc:title></cc:Work></rdf:RDF></metadata><sodipodi:namedview
     pagecolor="#ffffff"
     bordercolor="#666666"
     borderopacity="1"
     objecttolerance="10"
     gridtolerance="10"
     guidetolerance="10"
     inkscape:pageopacity="0"
     inkscape:pageshadow="2"
     inkscape:window-width="1284"
     inkscape:window-height="677"
     id="namedview50"
     showgrid="false"
     inkscape:zoom="1.9231666"
     inkscape:cx="68.808095"
     inkscape:cy="9.501903"
     inkscape:window-x="0"
     inkscape:window-y="0"
     inkscape:window-maximized="0"
     inkscape:current-layer="svg2"
     fit-margin-top="0"
     fit-margin-left="0"
     fit-margin-right="0"
     fit-margin-bottom="0" /><defs
     id="defs4"><style
       type="text/css"
       id="style6"><![CDATA[
    .fil4 {fill:#67B437}
    .fil3 {fill:#FEFEFE}
    .fil5 {fill:#FEFEFE;fill-rule:nonzero}
    .fil0 {fill:url(#id1)}
    .fil2 {fill:url(#id2)}
    .fil1 {fill:url(#id3)}
   ]]></style><linearGradient
       id="id1"
       gradientUnits="userSpaceOnUse"
       x1="2052.9299"
       y1="2219.1399"
       x2="2011.0699"
       y2="1213.98"><stop
         offset="0"
         style="stop-color:#F28E16"
         id="stop12" /><stop
         offset="0.568627"
         style="stop-color:#F28E16"
         id="stop14" /><stop
         offset="1"
         style="stop-color:#CC3D23"
         id="stop16" /></linearGradient><linearGradient
       id="id2"
       gradientUnits="userSpaceOnUse"
       x1="2349.55"
       y1="1383.88"
       x2="2291.3301"
       y2="1157.78"><stop
         offset="0"
         style="stop-color:#FED646"
         id="stop19" /><stop
         offset="1"
         style="stop-color:#CC3D23"
         id="stop21" /></linearGradient><linearGradient
       id="id3"
       gradientUnits="userSpaceOnUse"
       x1="2782.1799"
       y1="1300.12"
       x2="2832.8799"
       y2="1113.36"><stop
         offset="0"
         style="stop-color:#E51468"
         id="stop24" /><stop
         offset="1"
         style="stop-color:#FED646"
         id="stop26" /></linearGradient></defs><g
     id="_884197920"
     transform="translate(-1623.734,-763.34404)"><g
       id="g34"><path
         inkscape:connector-curvature="0"
         style="fill:url(#id1)"
         id="path36"
         d="m 2025,2233 c -33,-15 -64,-32 -94,-53 -54,-36 -100,-81 -141,-131 -61,-75 -108,-173 -133,-266 -8,-29 -14,-58 -19,-87 -4,-23 -7,-47 -10,-71 -2,-22 -3,-44 -4,-66 -1,-22 1,-46 3,-67 8,-87 32,-170 89,-238 17,-20 35,-36 56,-51 17,-13 38,-24 58,-32 62,-27 133,-35 201,-29 19,2 57,4 76,8 6,1 11,2 17,4 4,1 21,7 8,8 -40,4 -83,10 -122,22 -36,11 -73,25 -103,47 -21,15 -41,32 -57,53 -10,13 -18,26 -27,40 -8,15 -16,32 -21,48 -16,46 -22,92 -24,139 l 0,46 11,103 c 5,31 11,61 19,91 6,24 14,47 21,71 9,26 21,52 33,78 61,129 166,237 294,301 55,27 111,46 171,60 39,9 78,14 118,20 -110,21 -315,2 -417,-45 z"
         class="fil0" /><path
         inkscape:connector-curvature="0"
         style="fill:url(#id3)"
         id="path38"
         d="m 2805,1171 c -17,-18 -36,-34 -56,-48 -8,-5 -15,-10 -23,-15 -7,-5 -15,-9 -23,-13 -28,-20 -64,-28 -100,-35 l -52,-6 c 51,-12 103,-16 156,-11 59,5 100,22 150,52 110,66 172,170 208,282 l -145,0 c -23,-76 -59,-148 -115,-204 z"
         class="fil1" /><path
         inkscape:connector-curvature="0"
         style="fill:url(#id2)"
         id="path40"
         d="m 2314,1282 c -31,-30 -69,-57 -106,-80 -25,-16 -52,-30 -77,-45 70,4 179,37 236,76 37,26 70,55 99,89 17,20 31,41 45,62 l -111,0 c -24,-38 -52,-71 -85,-102 z"
         class="fil2" /><polygon
         style="fill:#fefefe"
         id="polygon42"
         points="2317,1485 2839,1485 2839,1571 2628,1571 2628,2286 2527,2286 2527,1571 2317,1571 "
         class="fil3" /><polygon
         style="fill:#fefefe"
         id="polygon44"
         points="3004,1485 3186,2132 3369,1485 3480,1485 3231,2286 3143,2286 2894,1485 "
         class="fil3" /><path
         style="fill:#67b437"
         inkscape:connector-curvature="0"
         id="path46"
         d="m 2185,1108 c -224,-19 -316,-166 -339,-336 293,-37 482,43 567,240 -86,-135 -245,-199 -443,-190 26,190 191,257 536,238 l 24,-4 36,-5 c -118,38 -242,65 -382,58 l 0,0 z"
         class="fil4" /></g><path
       style="fill:#fefefe;fill-rule:nonzero"
       inkscape:connector-curvature="0"
       id="path48"
       d="m 3971,1980 0,308 -99,0 0,-786 251,0 c 38,0 72,6 101,18 29,12 54,29 74,50 20,21 35,47 45,76 10,29 15,62 15,96 0,38 -5,72 -15,101 -10,30 -25,55 -45,75 -20,20 -45,36 -74,46 -29,11 -63,16 -100,16 l -152,0 z m 0,-85 152,0 c 24,0 45,-4 62,-11 17,-8 31,-18 42,-32 11,-13 19,-29 24,-48 5,-18 8,-39 8,-61 0,-20 -3,-40 -8,-59 -5,-19 -13,-36 -24,-50 -11,-14 -25,-26 -42,-34 -17,-9 -38,-13 -62,-13 l -152,0 0,308 z m 703,403 c -35,0 -67,-5 -95,-16 -28,-11 -52,-26 -72,-48 -20,-21 -35,-48 -45,-81 -11,-33 -16,-71 -16,-116 l 0,-66 c 0,-51 6,-95 18,-130 12,-36 28,-64 48,-86 20,-22 43,-38 69,-48 26,-10 53,-15 81,-15 37,0 68,6 94,18 26,12 47,30 64,53 17,23 29,52 36,86 8,34 11,74 11,118 l 0,55 -326,0 0,14 c 0,62 12,108 35,137 24,28 58,43 102,43 16,0 31,-2 44,-5 13,-3 25,-8 36,-14 11,-6 21,-13 30,-21 9,-8 17,-17 25,-27 l 50,60 c -8,11 -18,22 -29,32 -11,10 -25,20 -40,28 -15,8 -33,15 -53,20 -20,5 -43,8 -68,8 z m -11,-524 c -17,0 -32,2 -46,8 -14,5 -26,14 -37,27 -11,13 -19,30 -26,52 -6,22 -11,49 -12,81 l 230,0 0,-13 c -1,-23 -4,-43 -7,-62 -4,-19 -10,-35 -18,-49 -8,-14 -19,-24 -33,-32 -14,-8 -31,-11 -52,-11 z m 561,18 c -8,-1 -15,-2 -21,-3 -6,-1 -14,-1 -22,-1 -26,0 -47,7 -64,22 -17,14 -30,34 -39,59 l 0,418 -95,0 0,-584 93,0 1,59 c 12,-22 27,-39 45,-51 18,-13 39,-19 64,-19 3,0 6,0 10,1 4,1 8,1 11,2 3,1 7,1 10,2 3,1 5,2 7,2 l 1,93 z m 379,345 c 0,-11 -2,-20 -6,-29 -4,-9 -11,-17 -20,-25 -9,-8 -21,-16 -35,-24 -14,-8 -32,-17 -53,-26 -27,-11 -51,-22 -73,-33 -21,-11 -39,-23 -54,-36 -15,-13 -26,-28 -33,-46 -8,-17 -12,-37 -12,-61 0,-23 4,-45 13,-65 9,-20 21,-38 37,-53 16,-15 36,-27 58,-35 23,-9 48,-13 76,-13 29,0 56,5 79,14 23,9 43,21 60,37 16,16 29,35 37,56 9,22 13,45 13,70 l -95,0 c 0,-12 -2,-23 -6,-35 -4,-11 -10,-21 -18,-30 -8,-9 -18,-16 -29,-22 -11,-6 -25,-8 -40,-8 -16,0 -30,2 -41,7 -11,5 -21,11 -28,18 -7,7 -13,16 -16,26 -3,10 -5,20 -5,30 0,11 2,20 5,28 3,8 8,15 16,22 8,7 18,14 31,20 13,7 30,15 51,24 29,12 56,23 79,35 23,12 42,25 58,38 15,14 27,30 35,47 8,18 12,38 12,62 0,26 -5,49 -14,69 -9,21 -22,38 -39,53 -17,15 -37,26 -61,34 -24,8 -50,12 -79,12 -33,0 -62,-5 -88,-15 -26,-10 -47,-24 -64,-41 -17,-17 -30,-37 -39,-59 -9,-22 -13,-46 -13,-70 l 96,0 c 1,20 4,37 11,51 7,13 15,24 26,32 10,8 22,13 34,16 13,3 25,5 37,5 32,0 56,-7 72,-21 17,-14 25,-33 25,-58 z m 323,150 -95,0 0,-584 95,0 0,584 z m -101,-739 c 0,-16 5,-30 14,-41 9,-11 22,-17 40,-17 18,0 32,6 41,17 9,11 14,25 14,41 0,16 -4,30 -13,41 -9,11 -23,16 -41,16 -18,0 -31,-5 -40,-16 -9,-11 -14,-24 -14,-41 z m 398,472 -51,58 0,209 -95,0 0,-829 95,0 0,496 43,-59 139,-192 114,0 -186,244 210,340 -111,0 -159,-267 z"
       class="fil5" /></g></svg>