<svg xmlns="http://www.w3.org/2000/svg" xmlns:xlink="http://www.w3.org/1999/xlink" width="130" height="49" viewBox="0 0 130 49">
    <defs>
        <path id="b" d="M19.631.642v21.26L37.32 10.398z"/>
        <filter id="a" width="179.1%" height="165.9%" x="-39.6%" y="-23.5%" filterUnits="objectBoundingBox">
            <feOffset dy="2" in="SourceAlpha" result="shadowOffsetOuter1"/>
            <feGaussianBlur in="shadowOffsetOuter1" result="shadowBlurOuter1" stdDeviation="2"/>
            <feColorMatrix in="shadowBlurOuter1" values="0 0 0 0 0 0 0 0 0 0 0 0 0 0 0 0 0 0 0.5 0"/>
        </filter>
    </defs>
    <g fill="none" fill-rule="evenodd">
        <path fill="#FFF" d="M52.672 24.552h1.219c1.14 0 1.992-.226 2.558-.68.566-.453.849-1.113.849-1.98 0-.875-.237-1.52-.712-1.938-.474-.417-1.217-.626-2.229-.626h-1.685v5.224zm8.367-2.792c0 1.893-.588 3.342-1.763 4.345-1.176 1.003-2.847 1.505-5.015 1.505h-1.59v6.259h-3.705V16.27h5.582c2.12 0 3.732.46 4.835 1.378 1.104.919 1.656 2.289 1.656 4.11zm13.364 12.109H64.338V16.27h10.065v3.057h-6.36v3.864h5.917v3.057h-5.916v4.538h6.359v3.082zm7.351-9.786h1.195c1.172 0 2.036-.197 2.594-.59.558-.393.837-1.011.837-1.854 0-.834-.285-1.428-.855-1.781-.57-.353-1.452-.53-2.647-.53h-1.124v4.755zm0 3.033v6.753h-3.705V16.27h5.092c2.374 0 4.131.435 5.271 1.306 1.14.87 1.71 2.193 1.71 3.966 0 1.035-.284 1.956-.85 2.762-.565.807-1.366 1.439-2.402 1.896 2.63 3.956 4.343 6.512 5.14 7.668h-4.112l-4.172-6.753h-1.972zm22.771 1.866c0 1.589-.568 2.84-1.703 3.755-1.136.915-2.716 1.373-4.74 1.373-1.864 0-3.514-.354-4.948-1.06v-3.466c1.179.53 2.177.902 2.994 1.12.817.216 1.564.324 2.241.324.813 0 1.437-.156 1.87-.47.435-.312.652-.778.652-1.396 0-.345-.095-.652-.287-.92-.19-.27-.472-.528-.842-.777s-1.126-.646-2.265-1.192c-1.068-.505-1.87-.99-2.403-1.456a5.462 5.462 0 0 1-1.28-1.625c-.318-.618-.477-1.34-.477-2.167 0-1.556.524-2.78 1.572-3.67 1.048-.892 2.496-1.337 4.345-1.337.908 0 1.775.108 2.6.325.824.217 1.687.522 2.587.915l-1.195 2.9c-.932-.384-1.703-.653-2.313-.806a7.396 7.396 0 0 0-1.799-.228c-.701 0-1.239.164-1.614.493-.374.33-.561.758-.561 1.288 0 .329.075.616.227.86.151.245.392.482.723.71.33.23 1.114.64 2.349 1.235 1.633.786 2.753 1.574 3.359 2.365.605.79.908 1.76.908 2.907zm3.168 4.887V16.27h3.705v17.598h-3.705zm22.161 0h-4.207l-4.579-7.415-1.565 1.132v6.283h-3.706V16.27h3.706v8.053l1.458-2.07 4.733-5.983h4.112l-6.096 7.788 6.144 9.81zM54.906 43.487c0 1.127-.283 2.013-.849 2.658-.566.645-1.352.968-2.36.968-1.029 0-1.823-.317-2.383-.951-.56-.634-.839-1.529-.839-2.685 0-1.145.28-2.034.842-2.665.56-.63 1.357-.946 2.39-.946 1.004 0 1.788.321 2.353.963.564.642.846 1.528.846 2.658zm-5.57 0c0 .953.201 1.676.605 2.17.403.492.989.738 1.757.738.774 0 1.36-.245 1.754-.736.396-.492.593-1.215.593-2.172 0-.947-.196-1.665-.59-2.155-.394-.49-.976-.734-1.748-.734-.774 0-1.363.247-1.766.74-.404.492-.605 1.209-.605 2.149zm12.589 3.53h-.928l-3.82-5.908h-.038c.05.693.076 1.328.076 1.906v4.001h-.75v-7.039h.918l3.81 5.884h.039c-.007-.087-.021-.365-.043-.836-.023-.47-.03-.806-.024-1.008v-4.04h.76v7.04zm1.922 0v-7.04h.813v6.298h3.084v.741h-3.897zm5.083 0v-7.04h.812v7.04h-.812zm8.19 0h-.928l-3.82-5.908h-.038c.05.693.076 1.328.076 1.906v4.001h-.75v-7.039h.918l3.81 5.884h.039c-.007-.087-.021-.365-.043-.836-.023-.47-.03-.806-.024-1.008v-4.04h.76v7.04zm5.819 0h-3.897v-7.04h3.897v.727h-3.084v2.268h2.897v.722h-2.897v2.59h3.084v.732zm6.244 0h-.813v-6.313h-2.213v-.727h5.24v.727h-2.214v6.312zm7.258-7.04h.875l-2.52 7.04h-.803l-2.505-7.04h.86l1.607 4.555c.185.523.332 1.032.44 1.526.115-.52.264-1.038.45-1.555l1.596-4.526z"/>
        <path fill="#E05F20" d="M18.768 48.66C8.403 48.66 0 40.198 0 29.76c0-10.438 8.403-18.9 18.768-18.9 10.366 0 18.769 8.462 18.769 18.9 0 10.438-8.403 18.9-18.769 18.9zm0-11.504c4.056 0 7.344-3.311 7.344-7.396 0-4.084-3.288-7.395-7.344-7.395-4.056 0-7.344 3.31-7.344 7.395 0 4.085 3.288 7.396 7.344 7.396z"/>
        <g transform="translate(0 1)">
            <use fill="#000" filter="url(#a)" xlink:href="#b"/>
            <use fill="#A3C718" xlink:href="#b"/>
        </g>
    </g>
</svg>
