<?xml version="1.0" encoding="UTF-8" standalone="no"?>
<!-- Created with Inkscape (http://www.inkscape.org/) -->

<svg
   xmlns:dc="http://purl.org/dc/elements/1.1/"
   xmlns:cc="http://creativecommons.org/ns#"
   xmlns:rdf="http://www.w3.org/1999/02/22-rdf-syntax-ns#"
   xmlns:svg="http://www.w3.org/2000/svg"
   xmlns="http://www.w3.org/2000/svg"
   xmlns:sodipodi="http://sodipodi.sourceforge.net/DTD/sodipodi-0.dtd"
   xmlns:inkscape="http://www.inkscape.org/namespaces/inkscape"
   width="316.52411"
   height="1000.0001"
   id="svg2"
   sodipodi:version="0.32"
   inkscape:version="0.91 r13725"
   sodipodi:docname="rcu.svg"
   inkscape:output_extension="org.inkscape.output.svg.inkscape"
   inkscape:export-filename="C:\Aviation\SVGs\Remote Controls\MICCA Video Player Remote.png"
   inkscape:export-xdpi="90.000633"
   inkscape:export-ydpi="90.000633"
   version="1.0">
  <sodipodi:namedview
     id="base"
     pagecolor="#ffffff"
     bordercolor="#666666"
     borderopacity="1.0"
     gridtolerance="10000"
     guidetolerance="10"
     objecttolerance="10"
     inkscape:pageopacity="0.0"
     inkscape:pageshadow="2"
     inkscape:zoom="0.30440943"
     inkscape:cx="-216.31119"
     inkscape:cy="457.72758"
     inkscape:document-units="px"
     inkscape:current-layer="g928"
     showgrid="false"
     inkscape:window-width="1280"
     inkscape:window-height="684"
     inkscape:window-x="0"
     inkscape:window-y="1"
     inkscape:window-maximized="1"
     fit-margin-top="0"
     fit-margin-left="0"
     fit-margin-right="0"
     fit-margin-bottom="0"
     showguides="true"
     inkscape:guide-bbox="true">
    <inkscape:grid
       type="xygrid"
       id="grid2667"
       visible="true"
       enabled="true"
       empspacing="5"
       snapvisiblegridlinesonly="true"
       originx="-942.79015"
       originy="-707.89195"
       spacingx="1"
       spacingy="1" />
  </sodipodi:namedview>
  <title
     id="title6320">Video Player Remote Control</title>
  <defs
     id="defs4" />
  <metadata
     id="metadata7">
    <rdf:RDF>
      <cc:Work
         rdf:about="">
        <dc:format>image/svg+xml</dc:format>
        <dc:type
           rdf:resource="http://purl.org/dc/dcmitype/StillImage" />
        <dc:title>Video Player Remote Control</dc:title>
      </cc:Work>
    </rdf:RDF>
  </metadata>
  <g
     inkscape:label="Layer 1"
     inkscape:groupmode="layer"
     id="layer1"
     transform="translate(-1036.8308,-1515.3455)">
    <g
       id="g928">
      <path
         id="rect8743"
         d="m 1065.5974,1515.3455 258.9908,0 c 15.9367,0 28.7667,16.3865 28.7667,36.7412 l 0,926.5177 c 0,20.3546 -12.83,36.7412 -28.7667,36.7412 l -258.9908,0 c -15.9367,0 -28.7666,-16.3866 -28.7666,-36.7412 l 0,-926.5177 c 0,-20.3547 12.8299,-36.7412 28.7666,-36.7412 z"
         style="fill:#242b2a;stroke:none;stroke-width:1.00296855"
         inkscape:connector-curvature="0" />
      <path
         id="rect9009"
         d="m 1081.0386,1563.9602 29.1059,0 c 8.7689,0 15.8284,7.5546 15.8284,16.9386 0,9.3839 -7.0595,16.9385 -15.8284,16.9385 l -29.1059,0 c -8.769,0 -15.8285,-7.5546 -15.8285,-16.9385 0,-9.384 7.0595,-16.9386 15.8285,-16.9386 z"
         style="fill:#9f3933;fill-opacity:1;stroke:#000000;stroke-width:1.50445294;stroke-opacity:1"
         inkscape:connector-curvature="0" />
      <path
         inkscape:connector-curvature="0"
         id="path3758-4"
         d="m 1092.467,1572.5541 c -4.0304,1.2956 -6.96,4.998 -6.96,9.3986 0,5.4765 4.5166,9.9188 10.0845,9.9188 5.568,0 10.0845,-4.4423 10.0845,-9.9188 0,-4.401 -2.9437,-8.1038 -6.9765,-9.3986 l 0,3.5448 c 2.1517,1.1112 3.6536,3.2992 3.6536,5.8538 0,3.6664 -3.034,6.6505 -6.7616,6.6505 -3.7276,0 -6.7615,-2.9841 -6.7615,-6.6505 -10e-5,-2.5532 1.4858,-4.7422 3.637,-5.8538 z"
         style="opacity:0.76000001;fill:#ffffff;fill-opacity:1;fill-rule:evenodd;stroke:none;stroke-width:1.00296855" />
      <path
         inkscape:connector-curvature="0"
         id="path3760-6"
         d="m 1093.576,1569.926 0,13.8611 4.0311,0 0,-13.8611 z"
         style="opacity:0.76000001;fill:#ffffff;fill-opacity:1;fill-rule:evenodd;stroke:none;stroke-width:1.00296855" />
      <path
         id="rect9011"
         d="m 1132.5047,1633.3424 57.8589,0 c 1.1113,0 2.006,0.8947 2.006,2.0059 l 0,31.4524 c 0,1.1113 -0.8947,2.006 -2.006,2.006 l -57.8589,0 c -1.1113,0 -2.0059,-0.8947 -2.0059,-2.006 l 0,-31.4524 c 0,-1.1112 0.8946,-2.0059 2.0059,-2.0059 z"
         style="fill:#419155;fill-opacity:1;stroke:#000000;stroke-width:1.50445294;stroke-opacity:1"
         inkscape:connector-curvature="0" />
      <path
         id="rect9013"
         d="m 1200.6352,1633.3345 56.0265,0 c 1.0761,0 1.9424,0.895 1.9424,2.0068 l 0,31.4664 c 0,1.1118 -0.8663,2.0068 -1.9424,2.0068 l -56.0265,0 c -1.0761,0 -1.9425,-0.895 -1.9425,-2.0068 l 0,-31.4664 c 0,-1.1118 0.8664,-2.0068 1.9425,-2.0068 z"
         style="fill:#d4aa00;fill-opacity:1;stroke:#000000;stroke-width:1.50445294;stroke-opacity:1"
         inkscape:connector-curvature="0" />
      <path
         inkscape:connector-curvature="0"
         id="rect9013-6"
         d="m 1077.9069,1633.7125 c -0.055,0 -0.1038,0.024 -0.1578,0.031 -0.061,0.01 -0.1251,-0.016 -0.1839,0 -7.4176,0.1281 -13.3536,7.7948 -13.3536,17.3166 0,9.5216 5.936,17.2195 13.3536,17.3479 0.062,0 0.121,0 0.1839,0 0.054,0.01 0.1023,0.03 0.1578,0.03 l 45.8698,0 c 0.8811,0 1.6035,-0.8915 1.6035,-1.9798 l 0,-30.799 c 0,-1.0882 -0.7224,-1.9484 -1.6035,-1.9484 l -45.8698,0 z"
         style="fill:#9a3b34;fill-opacity:1;stroke:#000000;stroke-width:1.50445294;stroke-opacity:1" />
      <path
         style="fill:#7786eb;fill-opacity:1;stroke:#000000;stroke-width:1.50445294;stroke-opacity:1"
         d="m 1312.2788,1633.7125 c 0.055,0 0.1038,0.024 0.1577,0.031 0.061,0.01 0.1251,-0.016 0.184,0 7.4175,0.1281 13.3535,7.7948 13.3535,17.3166 0,9.5216 -5.936,17.2195 -13.3535,17.3479 -0.062,0 -0.1211,0 -0.184,0 -0.054,0.01 -0.1023,0.03 -0.1577,0.03 l -45.8699,0 c -0.8811,0 -1.6035,-0.8915 -1.6035,-1.9798 l 0,-30.799 c 0,-1.0882 0.7224,-1.9484 1.6035,-1.9484 l 45.8699,0 z"
         id="path9080"
         inkscape:connector-curvature="0" />
      <path
         id="rect9386"
         d="m 1132.5047,1697.5325 57.8589,0 c 1.1113,0 2.006,0.8946 2.006,2.0059 l 0,31.4524 c 0,1.1113 -0.8947,2.0059 -2.006,2.0059 l -57.8589,0 c -1.1113,0 -2.0059,-0.8946 -2.0059,-2.0059 l 0,-31.4524 c 0,-1.1113 0.8946,-2.0059 2.0059,-2.0059 z"
         style="fill:#4f5656;fill-opacity:1;stroke:#000000;stroke-width:1.50445294;stroke-opacity:1"
         inkscape:connector-curvature="0" />
      <path
         id="rect9388"
         d="m 1200.6352,1697.5244 56.0265,0 c 1.0761,0 1.9424,0.8951 1.9424,2.0068 l 0,31.4664 c 0,1.1118 -0.8663,2.0069 -1.9424,2.0069 l -56.0265,0 c -1.0761,0 -1.9425,-0.8951 -1.9425,-2.0069 l 0,-31.4664 c 0,-1.1117 0.8664,-2.0068 1.9425,-2.0068 z"
         style="fill:#4f5656;fill-opacity:1;stroke:#000000;stroke-width:1.50445294;stroke-opacity:1"
         inkscape:connector-curvature="0" />
      <path
         style="fill:#4f5656;fill-opacity:1;stroke:#000000;stroke-width:1.50445294;stroke-opacity:1"
         d="m 1077.9069,1697.9025 c -0.055,0 -0.1038,0.024 -0.1578,0.031 -0.061,0.01 -0.1251,-0.016 -0.1839,0 -7.4176,0.1281 -13.3536,7.7948 -13.3536,17.3166 0,9.5216 5.936,17.2195 13.3536,17.3479 0.062,10e-4 0.121,0 0.1839,0 0.054,0.01 0.1023,0.03 0.1578,0.03 l 45.8698,0 c 0.8811,0 1.6035,-0.8914 1.6035,-1.9797 l 0,-30.799 c 0,-1.0882 -0.7224,-1.9484 -1.6035,-1.9484 l -45.8698,0 z"
         id="path9390"
         inkscape:connector-curvature="0" />
      <path
         inkscape:connector-curvature="0"
         id="path9392"
         d="m 1312.2788,1697.9025 c 0.055,0 0.1038,0.024 0.1577,0.031 0.061,0.01 0.1251,-0.016 0.184,0 7.4175,0.1281 13.3535,7.7948 13.3535,17.3166 0,9.5216 -5.936,17.2195 -13.3535,17.3479 -0.062,10e-4 -0.1211,0 -0.184,0 -0.054,0.01 -0.1023,0.03 -0.1577,0.03 l -45.8699,0 c -0.8811,0 -1.6035,-0.8914 -1.6035,-1.9797 l 0,-30.799 c 0,-1.0882 0.7224,-1.9484 1.6035,-1.9484 l 45.8699,0 z"
         style="fill:#4f5656;fill-opacity:1;stroke:#000000;stroke-width:1.50445294;stroke-opacity:1" />
      <path
         id="rect9009-3"
         d="m 1281.0395,1563.9602 29.1059,0 c 8.769,0 15.8285,7.5546 15.8285,16.9386 0,9.3839 -7.0595,16.9385 -15.8285,16.9385 l -29.1059,0 c -8.7689,0 -15.8284,-7.5546 -15.8284,-16.9385 0,-9.384 7.0595,-16.9386 15.8284,-16.9386 z"
         style="fill:#4f5656;fill-opacity:1;stroke:#000000;stroke-width:1.50445294;stroke-opacity:1"
         inkscape:connector-curvature="0" />
      <path
         id="path2518-5-7"
         d="m 1327.2625,1801.9614 a 24.851955,24.515385 0 0 1 -24.852,24.5154 24.851955,24.515385 0 0 1 -24.8519,-24.5154 24.851955,24.515385 0 0 1 24.8519,-24.5154 24.851955,24.515385 0 0 1 24.852,24.5154 z"
         style="fill:#4f5656;fill-opacity:1;stroke:#000000;stroke-width:1.50445282;stroke-linecap:round;stroke-linejoin:round;stroke-miterlimit:4;stroke-dasharray:none;stroke-dashoffset:0;stroke-opacity:1"
         inkscape:connector-curvature="0" />
      <path
         id="path9740"
         d="m 1112.6271,1801.9614 a 24.851955,24.515385 0 0 1 -24.852,24.5154 24.851955,24.515385 0 0 1 -24.8519,-24.5154 24.851955,24.515385 0 0 1 24.8519,-24.5154 24.851955,24.515385 0 0 1 24.852,24.5154 z"
         style="fill:#4f5656;fill-opacity:1;stroke:#000000;stroke-width:1.50445282;stroke-linecap:round;stroke-linejoin:round;stroke-miterlimit:4;stroke-dasharray:none;stroke-dashoffset:0;stroke-opacity:1"
         inkscape:connector-curvature="0" />
      <path
         id="path9748"
         d="m 1305.6455,1926.7365 a 110.55273,110.55273 0 0 1 -110.5527,110.5527 110.55273,110.55273 0 0 1 -110.5528,-110.5527 110.55273,110.55273 0 0 1 110.5528,-110.5528 110.55273,110.55273 0 0 1 110.5527,110.5528 z"
         style="fill:#aab5b5;fill-opacity:1;stroke:#000000;stroke-width:2.00593734;stroke-opacity:1"
         inkscape:connector-curvature="0" />
      <path
         id="path9750"
         d="m 1258.6718,1926.7365 a 63.578995,63.578995 0 0 1 -63.579,63.5789 63.578995,63.578995 0 0 1 -63.579,-63.5789 63.578995,63.578995 0 0 1 63.579,-63.579 63.578995,63.578995 0 0 1 63.579,63.579 z"
         style="fill:#abb7b6;fill-opacity:1;stroke:#333333;stroke-width:6.01781178;stroke-opacity:1"
         inkscape:connector-curvature="0" />
      <path
         id="path3472-3"
         d="m 48.881784,583.17069 -6.241529,-10.36267 -6.241528,-10.36268 12.095106,-0.22398 12.095105,-0.22399 -5.853577,10.58666 z"
         inkscape:transform-center-y="-0.11550544"
         inkscape:transform-center-x="-2.7083362"
         style="fill:#ffffff;fill-opacity:1;stroke:none"
         transform="matrix(0,0.81586257,0.73186032,0,864.75408,1886.5644)"
         inkscape:connector-curvature="0" />
      <path
         id="path9802"
         d="m 48.881784,583.17069 -6.241529,-10.36267 -6.241528,-10.36268 12.095106,-0.22398 12.095105,-0.22399 -5.853577,10.58666 z"
         inkscape:transform-center-y="-0.11550544"
         inkscape:transform-center-x="2.7083234"
         style="fill:#ffffff;fill-opacity:1;stroke:none"
         transform="matrix(0,0.81586257,-0.73186032,0,1525.4316,1886.5644)"
         inkscape:connector-curvature="0" />
      <path
         id="path9802-9"
         d="m 48.881784,583.17069 -6.241529,-10.36267 -6.241528,-10.36268 12.095106,-0.22398 12.095105,-0.22399 -5.853577,10.58666 z"
         inkscape:transform-center-y="2.708313"
         inkscape:transform-center-x="0.11550464"
         style="fill:#ffffff;fill-opacity:1;stroke:none"
         transform="matrix(0.81586257,0,0,0.73186032,1155.5285,1596.582)"
         inkscape:connector-curvature="0" />
      <path
         id="path9822"
         d="m 48.881784,583.17069 -6.241529,-10.36267 -6.241528,-10.36268 12.095106,-0.22398 12.095105,-0.22399 -5.853577,10.58666 z"
         inkscape:transform-center-y="-2.7083502"
         inkscape:transform-center-x="0.11550464"
         style="fill:#ffffff;fill-opacity:1;stroke:none"
         transform="matrix(0.81586257,0,0,-0.73186032,1155.5285,2256.1566)"
         inkscape:connector-curvature="0" />
      <g
         id="text9824"
         style="font-style:normal;font-variant:normal;font-weight:bold;font-stretch:normal;font-size:12.03562355px;line-height:0%;font-family:sans-serif;-inkscape-font-specification:'Sans Bold';text-align:start;letter-spacing:0px;word-spacing:0px;writing-mode:lr-tb;text-anchor:start;fill:#ffffff;fill-opacity:1;stroke:none;stroke-width:1.00296855"
         aria-label="OK">
        <path
           id="path565"
           style="font-size:24.0712471px;line-height:1.25;font-family:sans-serif;stroke-width:1.00296855"
           d="m 1186.7712,1920.7657 q -2.0686,0 -3.2087,1.5279 -1.1401,1.528 -1.1401,4.3018 0,2.7621 1.1401,4.2901 1.1401,1.5279 3.2087,1.5279 2.0804,0 3.2205,-1.5279 1.1401,-1.528 1.1401,-4.2901 0,-2.7738 -1.1401,-4.3018 -1.1401,-1.5279 -3.2205,-1.5279 z m 0,-3.2793 q 4.2313,0 6.629,2.4213 2.3978,2.4212 2.3978,6.6877 0,4.2548 -2.3978,6.676 -2.3977,2.4213 -6.629,2.4213 -4.2195,0 -6.629,-2.4213 -2.3977,-2.4212 -2.3977,-6.676 0,-4.2665 2.3977,-6.6877 2.4095,-2.4213 6.629,-2.4213 z"
           inkscape:connector-curvature="0" />
        <path
           id="path567"
           style="font-size:24.0712471px;line-height:1.25;font-family:sans-serif;stroke-width:1.00296855"
           d="m 1199.2065,1917.8038 4.5251,0 0,6.4057 6.5232,-6.4057 5.2538,0 -8.4508,8.3097 9.3206,9.2383 -5.6652,0 -6.9816,-6.9111 0,6.9111 -4.5251,0 z"
           inkscape:connector-curvature="0" />
      </g>
      <path
         sodipodi:nodetypes="sssssssss"
         inkscape:connector-curvature="0"
         id="path12686"
         d="m 1150.2285,2185.5419 89.7286,0 c 1.0844,0 1.9573,0.8729 1.9573,1.9573 l 0,30.6892 c 0,1.0844 -0.8729,1.9573 -1.9573,1.9573 l -89.7286,0 c -1.0844,0 -1.9573,-0.8729 -1.9573,-1.9573 l 0,-30.6892 c 0,-1.0844 0.8729,-1.9573 1.9573,-1.9573 z"
         style="fill:#4f5656;fill-opacity:1;stroke:#000000;stroke-width:1.50299156;stroke-opacity:1" />
      <path
         sodipodi:nodetypes="cccsccssssscc"
         style="fill:#4f5656;fill-opacity:1;stroke:#000000;stroke-width:1.50423563;stroke-opacity:1"
         d="m 1077.672,2185.5438 c -0.055,0 -0.1035,0.024 -0.1573,0.031 -0.061,0.01 -0.1245,-0.016 -0.1832,0 -7.391,0.1278 -13.3056,7.7669 -13.3056,17.2545 0,9.4874 5.9146,17.1576 13.3056,17.2856 0.062,0 0.1207,0 0.1832,0 0.054,0.01 0.102,0.03 0.1573,0.03 l 65.9923,0 c 0.878,0 1.5978,-0.8883 1.5978,-1.9726 l 0,-30.6886 c 0,-1.0842 -0.7198,-1.9414 -1.5978,-1.9414 l -65.9923,0 z"
         id="path12688"
         inkscape:connector-curvature="0" />
      <path
         sodipodi:nodetypes="cccsccssssscc"
         style="fill:#4f5656;fill-opacity:1;stroke:#000000;stroke-width:1.50423563;stroke-opacity:1"
         d="m 1312.5136,2220.1438 c 0.055,0 0.1034,-0.024 0.1572,-0.031 0.061,-0.01 0.1245,0.016 0.1832,0 7.391,-0.1278 13.3057,-7.7669 13.3057,-17.2545 0,-9.4874 -5.9147,-17.1576 -13.3057,-17.2856 -0.062,0 -0.1206,0 -0.1832,0 -0.054,-0.01 -0.102,-0.03 -0.1572,-0.03 l -65.9924,0 c -0.878,0 -1.5978,0.8883 -1.5978,1.9726 l 0,30.6886 c 0,1.0842 0.7198,1.9414 1.5978,1.9414 l 65.9924,0 z"
         id="path12690"
         inkscape:connector-curvature="0" />
      <path
         style="fill:#4f5656;fill-opacity:1;stroke:#000000;stroke-width:1.50299156;stroke-opacity:1"
         d="m 1150.2285,2121.3519 89.7286,0 c 1.0844,0 1.9573,0.8729 1.9573,1.9573 l 0,30.6892 c 0,1.0844 -0.8729,1.9573 -1.9573,1.9573 l -89.7286,0 c -1.0844,0 -1.9573,-0.8729 -1.9573,-1.9573 l 0,-30.6892 c 0,-1.0844 0.8729,-1.9573 1.9573,-1.9573 z"
         id="rect12588"
         inkscape:connector-curvature="0"
         sodipodi:nodetypes="sssssssss" />
      <path
         inkscape:connector-curvature="0"
         id="path12592-4"
         d="m 1077.672,2121.3538 c -0.055,0 -0.1035,0.024 -0.1573,0.031 -0.061,0.01 -0.1245,-0.016 -0.1832,0 -7.391,0.1278 -13.3056,7.7669 -13.3056,17.2545 0,9.4874 5.9146,17.1576 13.3056,17.2856 0.062,0 0.1207,0 0.1832,0 0.054,0.01 0.102,0.03 0.1573,0.03 l 65.9923,0 c 0.878,0 1.5978,-0.8883 1.5978,-1.9726 l 0,-30.6886 c 0,-1.0842 -0.7198,-1.9414 -1.5978,-1.9414 l -65.9923,0 z"
         style="fill:#4f5656;fill-opacity:1;stroke:#000000;stroke-width:1.50423563;stroke-opacity:1"
         sodipodi:nodetypes="cccsccssssscc" />
      <path
         inkscape:connector-curvature="0"
         id="path12592-4-6"
         d="m 1312.5136,2155.9538 c 0.055,0 0.1034,-0.024 0.1572,-0.031 0.061,-0.01 0.1245,0.016 0.1832,0 7.391,-0.1278 13.3057,-7.7669 13.3057,-17.2545 0,-9.4874 -5.9147,-17.1576 -13.3057,-17.2856 -0.062,0 -0.1206,0 -0.1832,0 -0.054,-0.01 -0.102,-0.03 -0.1572,-0.03 l -65.9924,0 c -0.878,0 -1.5978,0.8883 -1.5978,1.9726 l 0,30.6886 c 0,1.0842 0.7198,1.9414 1.5978,1.9414 l 65.9924,0 z"
         style="fill:#4f5656;fill-opacity:1;stroke:#000000;stroke-width:1.50423563;stroke-opacity:1"
         sodipodi:nodetypes="cccsccssssscc" />
      <path
         id="path12600"
         d="m 1327.2625,2052.7036 a 24.851955,24.515385 0 0 1 -24.852,24.5154 24.851955,24.515385 0 0 1 -24.8519,-24.5154 24.851955,24.515385 0 0 1 24.8519,-24.5154 24.851955,24.515385 0 0 1 24.852,24.5154 z"
         style="fill:#4f5656;fill-opacity:1;stroke:#000000;stroke-width:1.50445282;stroke-linecap:round;stroke-linejoin:round;stroke-miterlimit:4;stroke-dasharray:none;stroke-dashoffset:0;stroke-opacity:1"
         inkscape:connector-curvature="0" />
      <path
         id="path12602"
         d="m 1112.6271,2052.7036 a 24.851955,24.515385 0 0 1 -24.852,24.5154 24.851955,24.515385 0 0 1 -24.8519,-24.5154 24.851955,24.515385 0 0 1 24.8519,-24.5154 24.851955,24.515385 0 0 1 24.852,24.5154 z"
         style="fill:#4f5656;fill-opacity:1;stroke:#000000;stroke-width:1.50445282;stroke-linecap:round;stroke-linejoin:round;stroke-miterlimit:4;stroke-dasharray:none;stroke-dashoffset:0;stroke-opacity:1"
         inkscape:connector-curvature="0" />
      <path
         sodipodi:nodetypes="sssssssss"
         inkscape:connector-curvature="0"
         id="path12713"
         d="m 1150.2284,2250.434 89.7287,0 c 1.0843,0 1.9573,0.8728 1.9573,1.9572 l 0,30.6893 c 0,1.0844 -0.873,1.9573 -1.9573,1.9573 l -89.7287,0 c -1.0844,0 -1.9573,-0.8729 -1.9573,-1.9573 l 0,-30.6893 c 0,-1.0844 0.8729,-1.9572 1.9573,-1.9572 z"
         style="fill:#4f5656;fill-opacity:1;stroke:#000000;stroke-width:1.50299156;stroke-opacity:1" />
      <path
         sodipodi:nodetypes="cccsccssssscc"
         style="fill:#4f5656;fill-opacity:1;stroke:#000000;stroke-width:1.50423563;stroke-opacity:1"
         d="m 1077.672,2250.4359 c -0.055,0 -0.1035,0.024 -0.1573,0.031 -0.061,0.01 -0.1246,-0.016 -0.1832,0 -7.391,0.1278 -13.3056,7.7669 -13.3056,17.2545 0,9.4875 5.9146,17.1577 13.3056,17.2857 0.062,0 0.1206,0 0.1832,0 0.054,0.01 0.102,0.03 0.1573,0.03 l 65.9923,0 c 0.878,0 1.5977,-0.8884 1.5977,-1.9727 l 0,-30.6885 c 0,-1.0842 -0.7197,-1.9414 -1.5977,-1.9414 l -65.9923,0 z"
         id="path12715"
         inkscape:connector-curvature="0" />
      <path
         sodipodi:nodetypes="cccsccssssscc"
         style="fill:#4f5656;fill-opacity:1;stroke:#000000;stroke-width:1.50423563;stroke-opacity:1"
         d="m 1312.5136,2285.0359 c 0.055,0 0.1034,-0.024 0.1571,-0.031 0.061,-0.01 0.1246,0.016 0.1833,0 7.3909,-0.1278 13.3057,-7.7669 13.3057,-17.2545 0,-9.4875 -5.9148,-17.1577 -13.3057,-17.2857 -0.062,0 -0.1206,0 -0.1833,0 -0.054,-0.01 -0.102,-0.03 -0.1571,-0.03 l -65.9925,0 c -0.878,0 -1.5977,0.8883 -1.5977,1.9726 l 0,30.6885 c 0,1.0842 0.7197,1.9415 1.5977,1.9415 l 65.9925,0 z"
         id="path12717"
         inkscape:connector-curvature="0" />
      <path
         style="fill:#4f5656;fill-opacity:1;stroke:#000000;stroke-width:1.50299156;stroke-opacity:1"
         d="m 1150.2284,2313.9219 89.7287,0 c 1.0843,0 1.9573,0.8728 1.9573,1.9573 l 0,30.6892 c 0,1.0844 -0.873,1.9573 -1.9573,1.9573 l -89.7287,0 c -1.0844,0 -1.9573,-0.8729 -1.9573,-1.9573 l 0,-30.6892 c 0,-1.0845 0.8729,-1.9573 1.9573,-1.9573 z"
         id="path12721"
         inkscape:connector-curvature="0"
         sodipodi:nodetypes="sssssssss" />
      <path
         inkscape:connector-curvature="0"
         id="path12723"
         d="m 1077.672,2313.9238 c -0.055,0 -0.1035,0.024 -0.1573,0.031 -0.061,0.01 -0.1246,-0.016 -0.1832,0 -7.391,0.1277 -13.3056,7.7668 -13.3056,17.2544 0,9.4875 5.9146,17.1577 13.3056,17.2857 0.062,0 0.1206,0 0.1832,0 0.054,0.01 0.102,0.03 0.1573,0.03 l 65.9923,0 c 0.878,0 1.5977,-0.8883 1.5977,-1.9727 l 0,-30.6885 c 0,-1.0842 -0.7197,-1.9414 -1.5977,-1.9414 l -65.9923,0 z"
         style="fill:#4f5656;fill-opacity:1;stroke:#000000;stroke-width:1.50423563;stroke-opacity:1"
         sodipodi:nodetypes="cccsccssssscc" />
      <path
         inkscape:connector-curvature="0"
         id="path12725"
         d="m 1312.5136,2348.5238 c 0.055,0 0.1034,-0.024 0.1571,-0.031 0.061,-0.01 0.1246,0.016 0.1833,0 7.3909,-0.1278 13.3057,-7.7669 13.3057,-17.2545 0,-9.4875 -5.9148,-17.1577 -13.3057,-17.2856 -0.062,0 -0.1206,0 -0.1833,0 -0.054,-0.01 -0.102,-0.03 -0.1571,-0.03 l -65.9925,0 c -0.878,0 -1.5977,0.8883 -1.5977,1.9726 l 0,30.6885 c 0,1.0842 0.7197,1.9415 1.5977,1.9415 l 65.9925,0 z"
         style="fill:#4f5656;fill-opacity:1;stroke:#000000;stroke-width:1.50423563;stroke-opacity:1"
         sodipodi:nodetypes="cccsccssssscc" />
      <g
         id="text9015-9-7-2-1"
         style="font-style:normal;font-variant:normal;font-weight:bold;font-stretch:normal;font-size:12.03562355px;line-height:0%;font-family:sans-serif;-inkscape-font-specification:'Sans Bold';text-align:start;letter-spacing:0px;word-spacing:0px;writing-mode:lr-tb;text-anchor:start;fill:#ffffff;fill-opacity:1;stroke:none;stroke-width:1.00296855"
         transform="scale(0.92517456,1.0808771)"
         aria-label="RETURN" />
      <path
         sodipodi:nodetypes="cccc"
         inkscape:connector-curvature="0"
         id="path14135"
         d="m 1295.0125,1811.237 11.9079,0 c 10.1557,-5.7331 5.7269,-13.531 0,-15.1555 l -8.7436,0"
         style="fill:none;stroke:#ffffff;stroke-width:4.0118742;stroke-linecap:butt;stroke-linejoin:miter;stroke-opacity:1" />
      <path
         id="path14137"
         d="m 308.45251,316.08984 -4.1764,-8.86071 9.7618,0.81348 z"
         style="fill:#ffffff;fill-opacity:1;stroke:none"
         transform="matrix(0.09991678,0.99797928,-0.99797928,0.09991678,1574.4585,1456.3212)"
         inkscape:connector-curvature="0" />
    </g>
  </g>
</svg>
